<?xml version="1.0" encoding="UTF-8" standalone="no"?>
<!-- Created with Inkscape (http://www.inkscape.org/) -->

<svg
   width="65mm"
   height="65mm"
   viewBox="0 0 65 65"
   version="1.1"
   id="svg1"
   xml:space="preserve"
   inkscape:version="1.4.2 (ebf0e94, 2025-05-08)"
   sodipodi:docname="portal-icon-white.svg"
   xmlns:inkscape="http://www.inkscape.org/namespaces/inkscape"
   xmlns:sodipodi="http://sodipodi.sourceforge.net/DTD/sodipodi-0.dtd"
   xmlns="http://www.w3.org/2000/svg"
   xmlns:svg="http://www.w3.org/2000/svg"><sodipodi:namedview
     id="namedview1"
     pagecolor="#ffffff"
     bordercolor="#999999"
     borderopacity="1"
     inkscape:showpageshadow="2"
     inkscape:pageopacity="0"
     inkscape:pagecheckerboard="0"
     inkscape:deskcolor="#d1d1d1"
     inkscape:document-units="mm"
     inkscape:zoom="1.4274173"
     inkscape:cx="460.97242"
     inkscape:cy="322.61063"
     inkscape:window-width="3440"
     inkscape:window-height="1351"
     inkscape:window-x="-9"
     inkscape:window-y="-9"
     inkscape:window-maximized="1"
     inkscape:current-layer="layer1" /><defs
     id="defs1" /><g
     inkscape:label="Réteg 1"
     inkscape:groupmode="layer"
     id="layer1"><path
       style="fill:#ffffff;fill-opacity:1;stroke-width:0.626215"
       d="m 5.5092448,46.292614 c 0,-17.27361 -0.042,-16.53323 1.05289,-18.5512 0.67609,-1.24608 2.44577,-2.88862 3.8631902,-3.58566 2.04584,-1.00606 2.00022,-1.00268 13.52074,-1.00268 5.74969,0 10.45398,0.0418 10.45398,0.0929 0,0.0511 -3.34695,3.24917 -7.43766,7.10681 l -7.43766,7.0139 -0.086,5.3135 -0.086,5.31349 -0.63724,1.18837 c -0.58824,1.09698 -1.12047,1.63631 -6.92176,7.01412 l -6.2845102,5.82578 z m 19.3498102,-3.53514 c 1.32597,-1.25632 3.85134,-3.65795 5.61194,-5.33695 l 3.20108,-3.05271 3.5884,-0.0814 c 3.78503,-0.0859 4.58927,-0.21445 6.26411,-1.0017 3.29575,-1.54915 5.65898,-5.24694 5.65886,-8.85455 -1.2e-4,-3.8958 -2.27142,-7.43055 -5.75503,-8.95637 -2.18492,-0.95699 -1.81019,-0.94086 -21.85131,-0.94086 H 3.2736448 v -0.61805 c 0,-0.33994 0.18988,-1.31289 0.42195,-2.16212 1.03578,-3.7902504 3.68885,-6.5885904 7.4510902,-7.8590904 l 1.3273,-0.44823 13.9029,-0.0497 c 15.65046,-0.0559 16.38535,-0.0187 19.64229,0.99293 5.57324,1.73115 9.97679,5.2695797 12.62435,10.1442104 1.68413,3.10078 2.4122,5.96539 2.41103,9.48636 -10e-4,3.67621 -0.82751,6.85013 -2.60455,10.00445 -2.64006,4.68621 -7.43628,8.52651 -12.52804,10.03109 -2.91862,0.86243 -2.84305,0.85726 -13.49957,0.9242 l -9.9742,0.0627 z"
       id="path1-8-1-7"
       sodipodi:nodetypes="sssssscccsscsssccsssscssscccscssccs" /></g></svg>
